# xmcd
#
# Track frame offsets:
#	150
#	20126
#	40575
#	54390
#	75411
#	88592
#	104404
#	125653
#	145411
#	163939
#	184837
#	206760
#	224812
#
# Disc length: 3274 seconds
#
# Revision: 2
# Processed by: cddbd v1.5.2PL0 Copyright (c) Steve Scherf et al.
# Submitted via: EasyCDDAExtractor 15.3.0.1
#
DISCID=c10cc80d
DTITLE=Varios Artistas - Billboard Latin Music Awards 2001
DYEAR=2001
DGENRE=Latin
TTITLE0=Christina Aguilera - Pero Me Acuerdo De Ti
TTITLE1=Christian Castro - Por Amarte Asi
TTITLE2=Luis Miguel - La Bikina
TTITLE3=Los Temerarios - Te Hice Mal
TTITLE4=Los Tri~O - Se Va El Amor
TTITLE5=Rocio Durcal - Infiel
TTITLE6=Paulina Rubio - Lo Hare Por Ti
TTITLE7=Son By Four - A Puro Dolor
TTITLE8=Gisselle - Jurame
TTITLE9=Carlos Vives - 19 De Noviembre
TTITLE10=Gilberto Santa Rosa - Que Alguien Me Diga
TTITLE11=Limite - Veneno
TTITLE12=Tito Rojas - Que Mas Tu Quieres De Mi
EXTD=
EXTT0=
EXTT1=
EXTT2=
EXTT3=
EXTT4=
EXTT5=
EXTT6=
EXTT7=
EXTT8=
EXTT9=
EXTT10=
EXTT11=
EXTT12=
PLAYORDER=
